<svg width="20.000000" height="20.000000" viewBox="0 0 20 20" fill="none" xmlns="http://www.w3.org/2000/svg" xmlns:xlink="http://www.w3.org/1999/xlink">
	<desc>
			Created with Pixso.
	</desc>
	<defs/>
	<path id="Vector" d="M10 0C4.47 0 0 4.47 0 10C0 15.52 4.47 20 10 20C15.52 20 20 15.52 20 10C20 4.47 15.52 0 10 0ZM18.7 10C18.7 14.78 14.83 18.7 10 18.7C5.21 18.7 1.29 14.83 1.29 10C1.29 5.21 5.16 1.29 10 1.29C14.78 1.29 18.7 5.16 18.7 10ZM12.7 13.56L9.43 11.18C9.3 11.08 9.23 10.94 9.23 10.79L9.23 4.35C9.23 4.08 9.45 3.87 9.71 3.87L10.28 3.87C10.54 3.87 10.76 4.08 10.76 4.35L10.76 10.25L13.6 12.32C13.82 12.47 13.87 12.78 13.71 13L13.38 13.45C13.22 13.66 12.92 13.71 12.7 13.56Z" fill="#FFFFFF" fill-opacity="1.000000" fill-rule="nonzero"/>
</svg>
