<svg width="30.000000" height="30.449951" viewBox="0 0 30 30.45" fill="none" xmlns="http://www.w3.org/2000/svg" xmlns:xlink="http://www.w3.org/1999/xlink">
	<desc>
			Created with Pixso.
	</desc>
	<defs/>
	<path id="Vector" d="M26.78 0L3.21 0C2.36 0 1.54 0.34 0.94 0.95C0.33 1.56 0 2.39 0 3.26L0 27.18C0 28.05 0.33 28.88 0.94 29.49C1.54 30.1 2.36 30.45 3.21 30.45L12.4 30.45L12.4 20.09L8.18 20.09L8.18 15.22L12.4 15.22L12.4 11.51C12.4 7.28 14.88 4.95 18.67 4.95C20.49 4.95 22.39 5.28 22.39 5.28L22.39 9.42L20.3 9.42C18.23 9.42 17.59 10.72 17.59 12.06L17.59 15.22L22.2 15.22L21.46 20.09L17.59 20.09L17.59 30.45L26.78 30.45C27.63 30.45 28.45 30.1 29.05 29.49C29.66 28.88 30 28.05 30 27.18L30 3.26C30 2.39 29.66 1.56 29.05 0.95C28.45 0.34 27.63 0 26.78 0Z" fill="#F1F1F1" fill-opacity="1.000000" fill-rule="nonzero"/>
</svg>
