<svg width="30.000000" height="30.449951" viewBox="0 0 30 30.45" fill="none" xmlns="http://www.w3.org/2000/svg" xmlns:xlink="http://www.w3.org/1999/xlink">
	<desc>
			Created with Pixso.
	</desc>
	<defs/>
	<path id="Vector" d="M15 11.59C14.29 11.59 13.6 11.81 13.01 12.21C12.42 12.6 11.97 13.17 11.7 13.83C11.43 14.5 11.36 15.23 11.49 15.93C11.63 16.63 11.97 17.28 12.47 17.78C12.97 18.29 13.61 18.64 14.3 18.78C14.99 18.92 15.71 18.84 16.36 18.57C17.02 18.29 17.57 17.83 17.97 17.23C18.36 16.64 18.57 15.94 18.57 15.22C18.57 14.26 18.19 13.34 17.52 12.66C16.85 11.98 15.94 11.59 15 11.59ZM23.35 8.81C23.16 8.34 22.89 7.92 22.54 7.56C22.19 7.2 21.77 6.93 21.31 6.74C19.9 6.18 16.56 6.3 15 6.3C13.43 6.3 10.09 6.17 8.68 6.74C8.22 6.93 7.8 7.2 7.45 7.56C7.1 7.92 6.83 8.34 6.64 8.81C6.09 10.24 6.21 13.64 6.21 15.22C6.21 16.8 6.09 20.2 6.65 21.63C6.83 22.1 7.1 22.52 7.45 22.88C7.8 23.24 8.22 23.51 8.68 23.7C10.09 24.26 13.44 24.14 15 24.14C16.56 24.14 19.9 24.27 21.31 23.7C21.77 23.51 22.19 23.24 22.54 22.88C22.89 22.52 23.17 22.1 23.35 21.63C23.91 20.2 23.78 16.8 23.78 15.22C23.78 13.64 23.91 10.24 23.35 8.81L23.35 8.81ZM15 20.79C13.91 20.79 12.85 20.47 11.94 19.85C11.04 19.24 10.34 18.37 9.92 17.35C9.51 16.33 9.4 15.21 9.61 14.13C9.82 13.05 10.34 12.06 11.11 11.28C11.88 10.5 12.86 9.97 13.92 9.75C14.99 9.54 16.09 9.65 17.1 10.07C18.1 10.49 18.96 11.21 19.56 12.12C20.16 13.04 20.49 14.12 20.49 15.22C20.49 15.95 20.35 16.68 20.07 17.35C19.79 18.03 19.39 18.65 18.88 19.16C18.37 19.68 17.76 20.09 17.1 20.37C16.43 20.65 15.72 20.79 15 20.79ZM20.71 10.71C20.46 10.71 20.21 10.64 20 10.49C19.79 10.35 19.62 10.15 19.53 9.91C19.43 9.67 19.41 9.41 19.45 9.16C19.5 8.91 19.63 8.68 19.81 8.49C19.98 8.31 20.21 8.19 20.46 8.14C20.71 8.09 20.97 8.11 21.2 8.21C21.44 8.31 21.64 8.48 21.78 8.69C21.92 8.9 21.99 9.16 21.99 9.41C21.99 9.58 21.96 9.75 21.9 9.91C21.83 10.07 21.74 10.21 21.62 10.33C21.5 10.46 21.36 10.55 21.21 10.62C21.05 10.68 20.88 10.72 20.72 10.72L20.71 10.71ZM26.78 0L3.21 0C2.36 0 1.54 0.34 0.94 0.95C0.33 1.56 0 2.39 0 3.26L0 27.18C0 28.05 0.33 28.88 0.94 29.49C1.54 30.1 2.36 30.45 3.21 30.45L26.78 30.45C27.63 30.45 28.45 30.1 29.05 29.49C29.66 28.88 30 28.05 30 27.18L30 3.26C30 2.39 29.66 1.56 29.05 0.95C28.45 0.34 27.63 0 26.78 0ZM25.63 19.71C25.55 21.45 25.16 22.99 23.9 24.26C22.65 25.53 21.13 25.93 19.42 26.02C17.65 26.12 12.35 26.12 10.58 26.02C8.86 25.93 7.35 25.53 6.09 24.26C4.84 22.99 4.44 21.44 4.36 19.71C4.26 17.91 4.26 12.53 4.36 10.73C4.45 8.99 4.83 7.45 6.09 6.18C7.35 4.91 8.87 4.51 10.58 4.43C12.35 4.33 17.65 4.33 19.42 4.43C21.13 4.52 22.65 4.91 23.9 6.18C25.15 7.46 25.55 9 25.63 10.74C25.73 12.53 25.73 17.91 25.63 19.71Z" fill="#F1F1F1" fill-opacity="1.000000" fill-rule="nonzero"/>
</svg>
