<svg width="20.000000" height="20.000000" viewBox="0 0 20 20" fill="none" xmlns="http://www.w3.org/2000/svg" xmlns:xlink="http://www.w3.org/1999/xlink">
	<desc>
			Created with Pixso.
	</desc>
	<defs/>
	<path id="Vector" d="M18.82 10.72L19.99 4.29C20 4.24 20 4.18 19.98 4.13C19.97 4.07 19.94 4.02 19.91 3.98C19.87 3.94 19.82 3.9 19.77 3.88C19.72 3.85 19.67 3.84 19.61 3.84L3.78 3.84L3.25 0.94C3.2 0.68 3.06 0.44 2.85 0.26C2.65 0.09 2.39 -0.01 2.12 0L0.38 0C0.28 0 0.18 0.04 0.11 0.11C0.04 0.18 0 0.28 0 0.38C0 0.48 0.04 0.58 0.11 0.65C0.18 0.72 0.28 0.76 0.38 0.76L2.12 0.76C2.21 0.76 2.29 0.8 2.36 0.85C2.43 0.91 2.48 0.99 2.49 1.08L5.17 15.82C4.8 16.1 4.51 16.48 4.36 16.92C4.2 17.36 4.18 17.83 4.3 18.29C4.42 18.74 4.68 19.14 5.03 19.44C5.39 19.74 5.83 19.93 6.29 19.98C6.75 20.03 7.22 19.94 7.63 19.72C8.04 19.49 8.38 19.15 8.59 18.74C8.8 18.32 8.88 17.85 8.82 17.39C8.76 16.93 8.56 16.49 8.25 16.15L14.82 16.15C14.46 16.54 14.26 17.04 14.23 17.57C14.21 18.1 14.36 18.62 14.67 19.04C14.98 19.47 15.43 19.78 15.94 19.91C16.45 20.05 17 20 17.48 19.79C17.96 19.57 18.35 19.2 18.59 18.73C18.83 18.26 18.9 17.72 18.79 17.2C18.68 16.68 18.4 16.22 17.98 15.89C17.57 15.56 17.06 15.38 16.53 15.38L5.88 15.38L5.32 12.3L16.93 12.3C17.38 12.3 17.81 12.14 18.16 11.85C18.51 11.57 18.74 11.17 18.82 10.72ZM8.07 17.69C8.07 17.99 7.98 18.29 7.81 18.54C7.64 18.79 7.4 18.99 7.12 19.11C6.84 19.22 6.53 19.25 6.23 19.19C5.93 19.13 5.66 18.99 5.45 18.77C5.23 18.56 5.08 18.28 5.02 17.99C4.97 17.69 5 17.38 5.11 17.1C5.23 16.82 5.43 16.58 5.68 16.41C5.93 16.24 6.23 16.15 6.53 16.15C6.94 16.15 7.33 16.31 7.62 16.6C7.91 16.89 8.07 17.28 8.07 17.69ZM18.07 17.69C18.07 17.99 17.98 18.29 17.81 18.54C17.64 18.79 17.4 18.99 17.12 19.11C16.84 19.22 16.53 19.25 16.23 19.19C15.93 19.13 15.66 18.99 15.45 18.77C15.23 18.56 15.08 18.28 15.02 17.99C14.97 17.69 15 17.38 15.11 17.1C15.23 16.82 15.43 16.58 15.68 16.41C15.93 16.24 16.23 16.15 16.53 16.15C16.94 16.15 17.33 16.31 17.62 16.6C17.91 16.89 18.07 17.28 18.07 17.69ZM3.92 4.61L19.15 4.61L18.06 10.58C18.01 10.85 17.87 11.09 17.67 11.26C17.46 11.44 17.2 11.53 16.93 11.53L5.18 11.53L3.92 4.61Z" fill="#323232" fill-opacity="1.000000" fill-rule="nonzero"/>
</svg>
