<svg width="20.000000" height="18.000000" viewBox="0 0 20 18" fill="none" xmlns="http://www.w3.org/2000/svg" xmlns:xlink="http://www.w3.org/1999/xlink">
	<desc>
			Created with Pixso.
	</desc>
	<defs/>
	<path id="Vector" d="M15 0C12.91 0 11.34 1.16 10 2.39C8.72 1.09 7.08 0 5 0C2.06 0 0 2.41 0 5.04C0 6.45 0.6 7.47 1.26 8.42L9.03 17.33C9.9 18.22 10.07 18.22 10.94 17.33L18.73 8.42C19.51 7.47 20 6.45 20 5.04C20 2.41 17.93 0 15 0ZM17.5 8.17L10 16.73L2.5 8.14C1.6 6.95 1.25 6.14 1.25 5.04C1.25 2.98 2.78 1.13 5 1.12C6.82 1.1 8.88 2.88 10 4.22C11.08 2.93 13.17 1.12 15 1.12C17.15 1.12 18.75 2.98 18.75 5.04C18.75 6.14 18.47 7.01 17.5 8.17Z" fill="#323232" fill-opacity="1.000000" fill-rule="nonzero"/>
</svg>
