<svg width="23.257690" height="12.708984" viewBox="0 0 23.2577 12.709" fill="none" xmlns="http://www.w3.org/2000/svg" xmlns:xlink="http://www.w3.org/1999/xlink">
	<desc>
			Created with Pixso.
	</desc>
	<defs/>
	<path id="ru" d="M5.72 8.54L8.6 12.59L10.06 12.59L6.98 8.27Q8.18 7.88 8.91 7.07Q9.02 6.94 9.11 6.81Q9.2 6.69 9.28 6.56Q9.86 5.61 9.86 4.31Q9.86 2.98 9.26 2.02Q8.95 1.53 8.49 1.15Q7.12 0 4.71 0L0 0L0 12.59L1.33 12.59L1.33 8.6L4.71 8.6Q5.23 8.6 5.72 8.54ZM14.72 11.71Q16.02 12.7 18.08 12.7Q20.16 12.7 21.45 11.7Q21.68 11.52 21.89 11.3Q21.91 11.28 21.93 11.26Q23.25 9.85 23.25 7.21L23.25 0L21.96 0L21.96 7.16Q21.96 9.36 20.96 10.44Q20.83 10.58 20.68 10.71Q19.72 11.51 18.08 11.51Q16.49 11.51 15.53 10.73Q15.37 10.6 15.22 10.44Q14.23 9.36 14.23 7.16L14.23 0L12.9 0L12.9 7.21Q12.9 9.84 14.21 11.25Q14.24 11.27 14.27 11.3Q14.48 11.52 14.72 11.71ZM7.54 6.64Q6.55 7.47 4.68 7.47L1.33 7.47L1.33 1.15L4.68 1.15Q6.55 1.15 7.54 1.97Q7.8 2.19 7.99 2.45Q8.52 3.19 8.52 4.31Q8.52 5.36 8.04 6.08Q7.83 6.39 7.54 6.64Z" fill="#323232" fill-opacity="1.000000" fill-rule="evenodd"/>
</svg>
