<svg width="20.000000" height="20.000000" viewBox="0 0 20 20" fill="none" xmlns="http://www.w3.org/2000/svg" xmlns:xlink="http://www.w3.org/1999/xlink">
	<desc>
			Created with Pixso.
	</desc>
	<defs>
		<clipPath id="clip4_261">
			<rect id="fluent:search-48-regular" rx="-0.500000" width="19.000000" height="19.000000" transform="translate(0.500000 0.500000)" fill="white" fill-opacity="0"/>
		</clipPath>
	</defs>
	<rect id="fluent:search-48-regular" rx="-0.500000" width="19.000000" height="19.000000" transform="translate(0.500000 0.500000)" fill="#FFFFFF" fill-opacity="0"/>
	<g clip-path="url(#clip4_261)">
		<path id="Vector" d="M7.77 0C3.48 0 0 3.48 0 7.77C0 12.07 3.48 15.55 7.77 15.55C9.67 15.55 11.41 14.87 12.76 13.74L18.81 19.79C18.87 19.86 18.95 19.91 19.03 19.94C19.12 19.98 19.21 20 19.3 20C19.39 20 19.48 19.98 19.57 19.94C19.65 19.91 19.73 19.86 19.79 19.79C19.86 19.73 19.91 19.65 19.94 19.57C19.98 19.48 20 19.39 20 19.3C20 19.21 19.98 19.12 19.94 19.03C19.91 18.95 19.86 18.87 19.79 18.81L13.74 12.76C14.91 11.36 15.55 9.6 15.55 7.77C15.55 3.48 12.07 0 7.77 0ZM1.38 7.77C1.38 4.24 4.24 1.38 7.77 1.38C11.3 1.38 14.16 4.24 14.16 7.77C14.16 11.3 11.3 14.16 7.77 14.16C4.24 14.16 1.38 11.3 1.38 7.77Z" fill="#323232" fill-opacity="1.000000" fill-rule="nonzero"/>
	</g>
</svg>
