<svg width="30.000000" height="30.449951" viewBox="0 0 30 30.45" fill="none" xmlns="http://www.w3.org/2000/svg" xmlns:xlink="http://www.w3.org/1999/xlink">
	<desc>
			Created with Pixso.
	</desc>
	<defs/>
	<path id="Vector" d="M26.78 0L3.21 0C1.43 0 0 1.46 0 3.26L0 27.18C0 28.98 1.43 30.45 3.21 30.45L26.78 30.45C28.56 30.45 30 28.98 30 27.18L30 3.26C30 1.46 28.56 0 26.78 0ZM23.51 10.79C23.52 10.98 23.52 11.18 23.52 11.37C23.52 17.26 19.1 24.05 11.02 24.05C8.53 24.05 6.22 23.32 4.28 22.05C4.64 22.09 4.98 22.11 5.34 22.11C7.39 22.11 9.28 21.4 10.79 20.2C8.86 20.16 7.24 18.88 6.68 17.11C7.36 17.21 7.97 17.21 8.67 17.03C6.66 16.61 5.15 14.82 5.15 12.65L5.15 12.6C5.73 12.93 6.42 13.13 7.13 13.16C6.53 12.75 6.04 12.2 5.7 11.55C5.35 10.91 5.18 10.18 5.18 9.45C5.18 8.62 5.39 7.86 5.77 7.2C7.94 9.9 11.18 11.67 14.83 11.86C14.2 8.84 16.43 6.38 19.11 6.38C20.38 6.38 21.52 6.92 22.32 7.79C23.31 7.6 24.26 7.23 25.11 6.72C24.78 7.75 24.09 8.62 23.18 9.17C24.06 9.08 24.92 8.82 25.71 8.48C25.11 9.37 24.36 10.16 23.51 10.79Z" fill="#F1F1F1" fill-opacity="1.000000" fill-rule="nonzero"/>
</svg>
